<svg width="24" height="24" viewBox="0 0 24 24" fill="none" xmlns="http://www.w3.org/2000/svg">
<path fill-rule="evenodd" clip-rule="evenodd" d="M6.90908 5.99951H17.0908C18.1372 5.99951 18.9916 6.84891 18.9998 7.89343C19 7.90222 19.0001 7.91101 18.9999 7.91979V15.5449C18.9999 16.5963 18.1423 17.454 17.0908 17.454H6.90908C5.85763 17.454 5 16.5963 5 15.5449V7.90859C5 6.85714 5.85763 5.99951 6.90908 5.99951ZM17.6593 7.62482C17.5541 7.41667 17.3376 7.27223 17.0907 7.27223H6.90899C6.66213 7.27223 6.44574 7.41661 6.34048 7.62468L12 11.5863L17.6593 7.62482ZM6.27263 9.13073L11.6351 12.8844C11.8542 13.0378 12.1458 13.0378 12.3649 12.8844L17.7271 9.13093V15.5449C17.7271 15.8934 17.4393 16.1813 17.0907 16.1813H6.90899C6.56045 16.1813 6.27263 15.8934 6.27263 15.5449V9.13073Z" fill="#373867"/>
<mask id="mask0_1188_950" style="mask-type:luminance" maskUnits="userSpaceOnUse" x="5" y="5" width="14" height="13">
<path fill-rule="evenodd" clip-rule="evenodd" d="M6.90908 5.99951H17.0908C18.1372 5.99951 18.9916 6.84891 18.9998 7.89343C19 7.90222 19.0001 7.91101 18.9999 7.91979V15.5449C18.9999 16.5963 18.1423 17.454 17.0908 17.454H6.90908C5.85763 17.454 5 16.5963 5 15.5449V7.90859C5 6.85714 5.85763 5.99951 6.90908 5.99951ZM17.6593 7.62482C17.5541 7.41667 17.3376 7.27223 17.0907 7.27223H6.90899C6.66213 7.27223 6.44574 7.41661 6.34048 7.62468L12 11.5863L17.6593 7.62482ZM6.27263 9.13073L11.6351 12.8844C11.8542 13.0378 12.1458 13.0378 12.3649 12.8844L17.7271 9.13093V15.5449C17.7271 15.8934 17.4393 16.1813 17.0907 16.1813H6.90899C6.56045 16.1813 6.27263 15.8934 6.27263 15.5449V9.13073Z" fill="white"/>
</mask>
<g mask="url(#mask0_1188_950)">
<rect x="4.36377" y="4.09033" width="15.2726" height="15.2726" fill="#373867"/>
</g>
</svg>
