<svg width="24" height="24" viewBox="0 0 24 24" fill="none" xmlns="http://www.w3.org/2000/svg">
<path fill-rule="evenodd" clip-rule="evenodd" d="M5.27024 9.04697L11.5702 4.14697C11.823 3.95036 12.177 3.95036 12.4298 4.14697L18.7298 9.04697C18.9003 9.17958 19 9.3835 19 9.59951V17.2995C19 18.4593 18.0598 19.3995 16.9 19.3995H14.1H9.9H7.1C5.9402 19.3995 5 18.4593 5 17.2995V9.59951C5 9.3835 5.09973 9.17958 5.27024 9.04697ZM10.6 17.9995H13.4V12.3995H10.6V17.9995ZM14.8 17.9995V11.6995C14.8 11.3129 14.4866 10.9995 14.1 10.9995H9.9C9.5134 10.9995 9.2 11.3129 9.2 11.6995V17.9995H7.1C6.7134 17.9995 6.4 17.6861 6.4 17.2995V9.94186L12 5.5863L17.6 9.94186V17.2995C17.6 17.6861 17.2866 17.9995 16.9 17.9995H14.8Z" fill="#373867"/>
</svg>
